# Made in Blockbench 5.2.1
mtllib car.mtl

o body
v 0.5 1 1.0625
v 0.5 0.875 -1.25
v 0.5 0.4375 1.0625
v 0.5 0.4375 -1.0625
v -0.5 1 1.0625
v -0.5 0.875 -1.25
v -0.5 0.4375 1.0625
v -0.5 0.4375 -1
v 0.5 0.9375 -0.8125
v -0.5 0.9375 -0.8125
v -0.5 0.4375 -0.875
v 0.5 0.4375 -0.875
v -0.5 0.9375 0.75
v 0.5 0.9375 0.75
v 0.5 0.4375 0.75
v -0.5 0.4375 0.75
v -0.5 1.125 0.1875
v 0.5 1.125 0.1875
v 0.5 0.4375 0.16469625
v -0.5 0.4375 0.16469625
v -0.5 1.125 -0.4375
v 0.5 1.125 -0.4375
v 0.5 0.4375 -0.28125
v -0.5 0.4375 -0.34375
v -0.5 0.6875 -0.4375
v -0.5 0.6875 0.1925675
v -0.5 0.6875 0.694256875
v -0.5 0.6875 1.0625
v 0.5 0.6875 1.0625
v 0.5 0.6875 0.694256875
v 0.5 0.6875 0.1925675
v 0.5 0.6875 -0.4375
v 0.5 0.6875 -0.8125
v 0.5 0.6875 -1.25
v -0.5 0.6875 -1.25
v -0.5 0.6875 -0.8125
v -0.25 0.6875 -1.3125
v -0.25 0.875 -1.3125
v -0.25 0.9375 -0.8125
v -0.25 1.125 -0.4375
v -0.25 1.125 0.1875
v -0.25 0.9375 0.75
v -0.25 1 1.0625
v -0.25 0.6875 1.0625
v -0.25 0.4375 1.0625
v -0.25 0.4375 0.75
v -0.25 0.4375 0.16469625
v -0.25 0.4375 -0.34375
v -0.25 0.4375 -0.875
v -0.25 0.4375 -1.0625
v 0.25 0.875 -1.3125
v 0.25 0.6875 -1.3125
v 0.25 0.4375 -1.0625
v 0.25 0.4375 -0.875
v 0.25 0.4375 -0.28125
v 0.25 0.4375 0.16469625
v 0.25 0.4375 0.75
v 0.25 0.4375 1.0625
v 0.25 0.6875 1.0625
v 0.25 1 1.0625
v 0.25 0.9375 0.75
v 0.25 1.125 0.1875
v 0.25 1.125 -0.4375
v 0.25 0.9375 -0.8125
v 0.25 0.625 0.694256875
v 0.25 0.625 0.1925675
v 0.25 0.625 -0.4375
v 0.25 0.625 -0.8125
v -0.25 0.625 -0.8125
v -0.25 0.625 -0.4375
v -0.1875 0.625 0.1925675
v -0.1875 0.625 0.694256875
v 0.25 0.9375 -1.0625
v -0.25 0.9375 -1.0625
v -0.5 0.9375 -1.03125
v -0.5 0.71875 -1.03125
v -0.5 0.46875 -0.9375
v -0.25 0.46875 -0.96875
v 0.25 0.46875 -0.96875
v 0.5 0.46875 -0.96875
v 0.5 0.71875 -1.03125
v 0.5 0.9375 -1.03125
vt 0.28515625 0.97265625
vt 0.271484375 0.974609375
vt 0.267578125 0.958984375
vt 0.2734375 0.95703125
vt 0.12890625 0.8359375
vt 0.1328125 0.837890625
vt 0.126953125 0.853515625
vt 0.11328125 0.8515625
vt 0.001885234375 0.996159921875
vt 0.001953671875 0.981941015625
vt 0.01757859375 0.983894140625
vt 0.0175194140625 0.999991171875
vt 0.087908984375 0.82421875
vt 0.087908984375 0.8303952734375
vt 0.072265625 0.830078125
vt 0.072247265625 0.8240187109375
vt 0.140625 0.91796875
vt 0.15625 0.91796875
vt 0.15625 0.93359375
vt 0.140625 0.93359375
vt 0.1904296875 0.9052734375
vt 0.17370703125 0.9076717578125
vt 0.17370703125 0.8855748046875
vt 0.1904296875 0.8857421875
vt 0.00195359375 0.8460265625
vt 0.01757859375 0.8460265625
vt 0.01757859375 0.86594453125
vt 0.00195359375 0.86594453125
vt 0.2578125 0.8359375
vt 0.2578125 0.8515625
vt 0.234797265625 0.8515625
vt 0.23828125 0.8359375
vt 0.0722705859375 0.978832421875
vt 0.0878955859375 0.978832421875
vt 0.0878955859375 0.998363671875
vt 0.0722705859375 0.998363671875
vt 0.16015625 0.95703125
vt 0.163640234375 0.97265625
vt 0.140625 0.97265625
vt 0.140625 0.95703125
vt 0.00195359375 0.86594453125
vt 0.01757859375 0.86594453125
vt 0.01757859375 0.903002734375
vt 0.00195359375 0.903002734375
vt 0.00195359375 0.903002734375
vt 0.01757859375 0.903002734375
vt 0.01757859375 0.942065234375
vt 0.00195359375 0.942065234375
vt 0.224609375 0.95703125
vt 0.234375 0.97265625
vt 0.194995703125 0.97265625
vt 0.196737890625 0.95703125
vt 0.0722705859375 0.910473046875
vt 0.0878955859375 0.910473046875
vt 0.0878955859375 0.9422507812500001
vt 0.0722705859375 0.9422507812500001
vt 0.201699609375 0.8359375
vt 0.203441796875 0.8515625
vt 0.1640625 0.8515625
vt 0.169921875 0.8359375
vt 0.00195359375 0.942065234375
vt 0.01757859375 0.942065234375
vt 0.01757859375 0.968269140625
vt 0.00195359375 0.968269140625
vt 0.1640625 0.87890625
vt 0.1640625 0.8515625
vt 0.203441796875 0.8515625
vt 0.203125 0.87890625
vt 0.203125 0.87890625
vt 0.203441796875 0.8515625
vt 0.234797265625 0.8515625
vt 0.23828125 0.8671875
vt 0.23828125 0.8671875
vt 0.234797265625 0.8515625
vt 0.2578125 0.8515625
vt 0.2578125 0.87109375
vt 0.140625 0.93359375
vt 0.15625 0.93359375
vt 0.15625 0.953125
vt 0.140625 0.953125
vt 0.140625 0.9921875
vt 0.140625 0.97265625
vt 0.163640234375 0.97265625
vt 0.16015625 0.98828125
vt 0.16015625 0.98828125
vt 0.163640234375 0.97265625
vt 0.194995703125 0.97265625
vt 0.1953125 1
vt 0.1953125 1
vt 0.194995703125 0.97265625
vt 0.234375 0.97265625
vt 0.234375 1
vt 0.234375 1
vt 0.234375 0.97265625
vt 0.2578125 0.97265625
vt 0.2578125 0.98828125
vt 0.28515625 0.984375
vt 0.271484375 0.98828125
vt 0.271484375 0.974609375
vt 0.28515625 0.97265625
vt 0.064933984375 0.83984375
vt 0.048828125 0.83984375
vt 0.048828125 0.828125
vt 0.064933984375 0.828125
vt 0.11328125 0.8515625
vt 0.126953125 0.853515625
vt 0.126953125 0.8671875
vt 0.11328125 0.86328125
vt 0.140625 0.8671875
vt 0.140625 0.8515625
vt 0.1640625 0.8515625
vt 0.1640625 0.87890625
vt 0.001472265625 0.828125
vt 0.017578125 0.828125
vt 0.017578125 0.83984375
vt 0.001472265625 0.83984375
vt 0.04888890625 0.9999996875
vt 0.048828671875 0.983894140625
vt 0.06445359375 0.981941015625
vt 0.064521015625 0.9961517578125
vt 0.06445359375 0.968269140625
vt 0.04882859375 0.968269140625
vt 0.04882859375 0.942065234375
vt 0.06445359375 0.942065234375
vt 0.06445359375 0.942065234375
vt 0.04882859375 0.942065234375
vt 0.04882859375 0.903002734375
vt 0.06445359375 0.903002734375
vt 0.06445359375 0.903002734375
vt 0.04882859375 0.903002734375
vt 0.04882859375 0.86594453125
vt 0.06445359375 0.86594453125
vt 0.06445359375 0.86594453125
vt 0.04882859375 0.86594453125
vt 0.04882859375 0.8460265625
vt 0.06445359375 0.8460265625
vt 0.203125 0.953125
vt 0.1875 0.953125
vt 0.1875 0.93359375
vt 0.203125 0.93359375
vt 0.203125 0.93359375
vt 0.1875 0.93359375
vt 0.1875 0.91796875
vt 0.203125 0.91796875
vt 0.1347705859375 0.998363671875
vt 0.1191455859375 0.998363671875
vt 0.1191455859375 0.978832421875
vt 0.1347705859375 0.978832421875
vt 0.1347705859375 0.9422507812500001
vt 0.1191455859375 0.9422507812500001
vt 0.1191455859375 0.914379296875
vt 0.1347705859375 0.914379296875
vt 0.134783984375 0.8242191015625
vt 0.134783984375 0.8303952734375
vt 0.119158984375 0.8303952734375
vt 0.119158984375 0.8242191015625
vt 0.12683203125 0.8855744921875
vt 0.14245703125 0.8855744921875
vt 0.14245703125 0.9076717578125
vt 0.12683203125 0.9049096484375
vt 0.048828125 0.83984375
vt 0.017578125 0.83984375
vt 0.017578125 0.828125
vt 0.048828125 0.828125
vt 0.17370703125 0.9076717578125
vt 0.14245703125 0.9076717578125
vt 0.14245703125 0.8855744921875
vt 0.17370703125 0.8855744921875
vt 0.119158984375 0.8242191015625
vt 0.119158984375 0.8303952734375
vt 0.087908984375 0.8303952734375
vt 0.087908984375 0.8242191015625
vt 0.0878955859375 0.877269921875
vt 0.1191455859375 0.877269921875
vt 0.1191455859375 0.914379296875
vt 0.0878955859375 0.910473046875
vt 0.0878955859375 0.910473046875
vt 0.1191455859375 0.914379296875
vt 0.1191455859375 0.9422507812500001
vt 0.0878955859375 0.9422507812500001
vt 0.0878955859375 0.9422507812500001
vt 0.1191455859375 0.9422507812500001
vt 0.1191455859375 0.978832421875
vt 0.0878955859375 0.978832421875
vt 0.0878955859375 0.978832421875
vt 0.1191455859375 0.978832421875
vt 0.1191455859375 0.998363671875
vt 0.0878955859375 0.998363671875
vt 0.15625 0.91796875
vt 0.1875 0.91796875
vt 0.1875 0.93359375
vt 0.15625 0.93359375
vt 0.15625 0.93359375
vt 0.1875 0.93359375
vt 0.1875 0.953125
vt 0.15625 0.953125
vt 0.01757859375 0.8460265625
vt 0.04882859375 0.8460265625
vt 0.04882859375 0.86594453125
vt 0.01757859375 0.86594453125
vt 0.01757859375 0.86594453125
vt 0.04882859375 0.86594453125
vt 0.04882859375 0.903002734375
vt 0.01757859375 0.903002734375
vt 0.01757859375 0.903002734375
vt 0.04882859375 0.903002734375
vt 0.04882859375 0.942065234375
vt 0.01757859375 0.942065234375
vt 0.01757859375 0.942065234375
vt 0.04882859375 0.942065234375
vt 0.04882859375 0.968269140625
vt 0.01757859375 0.968269140625
vt 0.01757859375 1
vt 0.01757859375 0.983894140625
vt 0.04882859375 0.983894140625
vt 0.04882859375 1
vt 0.140625 0.83203125
vt 0.140625 0.81640625
vt 0.171875 0.81640625
vt 0.171875 0.83203125
vt 0.1805056640625 0.83203125
vt 0.1770216796875 0.8203125
vt 0.2136033203125 0.8203125
vt 0.2118611328125 0.83203125
vt 0 0.76953125
vt 0.015625 0.76953125
vt 0.015625 0.78141171875
vt 0 0.78515625
vt 0.1621148046875 0.7890625
vt 0.1464789453125 0.7851991796875
vt 0.1464789453125 0.7734375
vt 0.1620932421875 0.7734375
vt 0.09375 0.8046875
vt 0.09375 0.7890625
vt 0.1171875 0.7890625
vt 0.1171875 0.8046875
vt 0.0380859375 0.8125
vt 0.0341796875 0.82421875
vt 0.0107421875 0.82421875
vt 0.0009765625 0.8125
vt 0.171875 0.7734375
vt 0.1875 0.7734375
vt 0.1875 0.78996796875
vt 0.171875 0.79296875
vt 0.13869625 0.7890625
vt 0.1230225 0.7853562109375
vt 0.1230225 0.7734375
vt 0.1385989453125 0.7734375
vt 0.19921875 0.81640625
vt 0.19921875 0.80078125
vt 0.22265625 0.80078125
vt 0.22265625 0.81640625
vt 0.1201171875 0.80859375
vt 0.1142578125 0.8203125
vt 0.0908203125 0.8203125
vt 0.0869140625 0.80859375
vt 0.09375 0.76953125
vt 0.109375 0.76953125
vt 0.109375 0.781450390625
vt 0.09375 0.78515625
vt 0.2265625 0.93359375
vt 0.210840234375 0.9300996875
vt 0.210840234375 0.91796875
vt 0.2263684375 0.91796875
vt 0.0703125 0.8671875
vt 0.0703125 0.84765625
vt 0.1015625 0.84765625
vt 0.1015625 0.8671875
vt 0.0807908203125 0.80859375
vt 0.0773068359375 0.8203125
vt 0.0459513671875 0.8203125
vt 0.0442091796875 0.80859375
vt 0.2129633984375 0.7734375
vt 0.2168453515625 0.792973359375
vt 0.2011233984375 0.792973359375
vt 0.2011233984375 0.7773522265625
vt 0.228529609375 0.953125
vt 0.208970390625 0.9493622265625
vt 0.212882265625 0.9375
vt 0.2284848046875 0.9375
vt 0.04882859375 0.968269140625
vt 0.04882859375 0.983894140625
vt 0.01757859375 0.983894140625
vt 0.01757859375 0.968269140625
vt 0.01757859375 0.968269140625
vt 0.01757859375 0.983894140625
vt 0.00195359375 0.981941015625
vt 0.00195359375 0.968269140625
vt 0.140625 0.8671875
vt 0.126953125 0.8671875
vt 0.126953125 0.853515625
vt 0.140625 0.8515625
vt 0.140625 0.8515625
vt 0.126953125 0.853515625
vt 0.1328125 0.837890625
vt 0.13671875 0.8359375
vt 0.07229546875 0.877393671875
vt 0.0722606640625 0.873026640625
vt 0.0878955859375 0.8711555078125
vt 0.0878955859375 0.877269921875
vt 0.0878955859375 0.877269921875
vt 0.0878955859375 0.87109375
vt 0.1191455859375 0.87109375
vt 0.1191455859375 0.877269921875
vt 0.1191455859375 0.877269921875
vt 0.1191455859375 0.87109375
vt 0.1347705859375 0.87109375
vt 0.1347705859375 0.877269921875
vt 0.26171875 0.95703125
vt 0.267578125 0.958984375
vt 0.271484375 0.974609375
vt 0.2578125 0.97265625
vt 0.2578125 0.97265625
vt 0.271484375 0.974609375
vt 0.271484375 0.98828125
vt 0.2578125 0.98828125
vt 0.06445359375 0.968269140625
vt 0.06445359375 0.981941015625
vt 0.04882859375 0.983894140625
vt 0.04882859375 0.968269140625
vn 1 0 0
vn -1 0 0
vn -0.03431991115272901 0.9609575122764124 -0.2745592892218321
vn 0.03949762527666822 -0.9479430066400373 0.31598100221334574
vn 0 0 1
vn -0.17407765595569785 -0.6963106238227914 -0.6963106238227914
vn 0 0.9805806756909202 -0.19611613513818404
vn -1 0 0
vn 0 -1 0
vn 1 0 0
vn 0 0.948683298050514 0.316227766016838
vn 0 1 0
vn 1 0 0
vn 0 -1 0
vn -1 0 0
vn 0 0.8944271909999161 -0.44721359549995804
vn -1 0 0
vn -1 0 0
vn -1 0 0
vn 0 0 1
vn 1 0 0
vn 1 0 0
vn 1 0 0
vn 1 0 0
vn 1 0 0
vn -0.242535625036333 0 -0.970142500145332
vn -1 0 0
vn -1 0 0
vn 0.242535625036333 0 -0.970142500145332
vn 0.030303030303030304 0.9696969696969697 -0.24242424242424243
vn 0 0.8944271909999161 -0.44721359549995804
vn 0 1 0
vn 0 0.948683298050514 0.316227766016838
vn 0 0.9805806756909202 -0.19611613513818404
vn 0 0 1
vn 0 0 1
vn 0 -1 0
vn 0 -1 0
vn 0 -0.948683298050514 0.316227766016838
vn 0 -0.7071067811865476 -0.7071067811865476
vn 0 0 -1
vn 0 -0.7071067811865476 -0.7071067811865476
vn 0 -0.948683298050514 0.316227766016838
vn 0 -1 0
vn 0 -1 0
vn 0 -1 0
vn 0 -1 0
vn 0 0 1
vn 0 0 1
vn 0 0.9805806756909202 -0.19611613513818404
vn 0 0.948683298050514 0.316227766016838
vn 0 1 0
vn 0 0.8944271909999161 -0.44721359549995804
vn 0 0.9701425001453319 -0.24253562503633297
vn 0.242535625036333 -0.970142500145332 0
vn 1 0 0
vn 0 -0.28496971268926974 -0.9585365213959223
vn 0.0367329812997146 -0.1469319251988584 0.988464312680125
vn 0.242535625036333 -0.970142500145332 0
vn 1 0 0
vn 0 -0.6401843996644799 -0.7682212795973759
vn 0.07881104062391008 -0.3152441624956403 0.945732487486921
vn -0.242535625036333 -0.970142500145332 0
vn -1 0 0
vn 0 -0.316227766016838 0.948683298050514
vn -0.1111111111111111 -0.4444444444444444 -0.8888888888888888
vn -0.19611613513818407 -0.9805806756909202 0
vn -0.948683298050514 0.316227766016838 0
vn -0.022154275967940434 -0.11077137983970217 0.9935989580634356
vn -0.05361924743548965 -0.26809623717744824 -0.9618988428705719
vn 0 1 0
vn 0 1 0
vn -1 0 0
vn -1 0 0
vn -0.05581455721859476 -0.8930329154975162 -0.4465164577487581
vn 0 -0.948683298050514 -0.316227766016838
vn 0 -0.948683298050514 -0.316227766016838
vn 1 0 0
vn 1 0 0
vn 0 1 0
usemtl m_65f34272-5550-0049-aad6-1257b0503e42
f 34/1/1 81/2/1 80/3/1 4/4/1
f 8/5/2 77/6/2 76/7/2 35/8/2
f 6/9/3 75/10/3 74/11/3 38/12/3
f 50/13/4 78/14/4 77/15/4 8/16/4
f 7/17/5 45/18/5 44/19/5 28/20/5
f 35/21/6 37/22/6 50/23/6 8/24/6
f 5/25/7 43/26/7 42/27/7 13/28/7
f 7/29/8 28/30/8 27/31/8 16/32/8
f 16/33/9 46/34/9 45/35/9 7/36/9
f 15/37/10 30/38/10 29/39/10 3/40/10
f 13/41/11 42/42/11 41/43/11 17/44/11
f 17/45/12 41/46/12 40/47/12 21/48/12
f 23/49/13 32/50/13 31/51/13 19/52/13
f 24/53/14 48/54/14 47/55/14 20/56/14
f 20/57/15 26/58/15 25/59/15 24/60/15
f 21/61/16 40/62/16 39/63/16 10/64/16
f 21/65/17 25/66/17 26/67/17 17/68/17
f 17/69/18 26/70/18 27/71/18 13/72/18
f 13/73/19 27/74/19 28/75/19 5/76/19
f 28/77/20 44/78/20 43/79/20 5/80/20
f 1/81/21 29/82/21 30/83/21 14/84/21
f 14/85/22 30/86/22 31/87/22 18/88/22
f 18/89/23 31/90/23 32/91/23 22/92/23
f 22/93/24 32/94/24 33/95/24 9/96/24
f 2/97/25 82/98/25 81/99/25 34/100/25
f 6/101/26 38/102/26 37/103/26 35/104/26
f 35/105/27 76/106/27 75/107/27 6/108/27
f 10/109/28 36/110/28 25/111/28 21/112/28
f 34/113/29 52/114/29 51/115/29 2/116/29
f 51/117/30 73/118/30 82/119/30 2/120/30
f 9/121/31 64/122/31 63/123/31 22/124/31
f 22/125/32 63/126/32 62/127/32 18/128/32
f 18/129/33 62/130/33 61/131/33 14/132/33
f 14/133/34 61/134/34 60/135/34 1/136/34
f 1/137/35 60/138/35 59/139/35 29/140/35
f 29/141/36 59/142/36 58/143/36 3/144/36
f 3/145/37 58/146/37 57/147/37 15/148/37
f 19/149/38 56/150/38 55/151/38 23/152/38
f 4/153/39 80/154/39 79/155/39 53/156/39
f 4/157/40 53/158/40 52/159/40 34/160/40
f 38/161/41 51/162/41 52/163/41 37/164/41
f 37/165/42 52/166/42 53/167/42 50/168/42
f 53/169/43 79/170/43 78/171/43 50/172/43
f 49/173/44 54/174/44 55/175/44 48/176/44
f 48/177/45 55/178/45 56/179/45 47/180/45
f 47/181/46 56/182/46 57/183/46 46/184/46
f 46/185/47 57/186/47 58/187/47 45/188/47
f 45/189/48 58/190/48 59/191/48 44/192/48
f 44/193/49 59/194/49 60/195/49 43/196/49
f 43/197/50 60/198/50 61/199/50 42/200/50
f 42/201/51 61/202/51 62/203/51 41/204/51
f 41/205/52 62/206/52 63/207/52 40/208/52
f 40/209/53 63/210/53 64/211/53 39/212/53
f 38/213/54 74/214/54 73/215/54 51/216/54
f 30/217/55 65/218/55 66/219/55 31/220/55
f 65/221/56 57/222/56 56/223/56 66/224/56
f 15/225/57 57/226/57 65/227/57 30/228/57
f 31/229/58 66/230/58 56/231/58 19/232/58
f 32/233/59 67/234/59 68/235/59 33/236/59
f 54/237/60 68/238/60 67/239/60 55/240/60
f 23/241/61 55/242/61 67/243/61 32/244/61
f 33/245/62 68/246/62 54/247/62 12/248/62
f 36/249/63 69/250/63 70/251/63 25/252/63
f 48/253/64 70/254/64 69/255/64 49/256/64
f 11/257/65 49/258/65 69/259/65 36/260/65
f 25/261/66 70/262/66 48/263/66 24/264/66
f 26/265/67 71/266/67 72/267/67 27/268/67
f 46/269/68 72/270/68 71/271/68 47/272/68
f 71/273/69 26/274/69 20/275/69 47/276/69
f 27/277/70 72/278/70 46/279/70 16/280/70
f 64/281/71 73/282/71 74/283/71 39/284/71
f 39/285/72 74/286/72 75/287/72 10/288/72
f 10/289/73 75/290/73 76/291/73 36/292/73
f 36/293/74 76/294/74 77/295/74 11/296/74
f 11/297/75 77/298/75 78/299/75 49/300/75
f 49/301/76 78/302/76 79/303/76 54/304/76
f 54/305/77 79/306/77 80/307/77 12/308/77
f 12/309/78 80/310/78 81/311/78 33/312/78
f 33/313/79 81/314/79 82/315/79 9/316/79
f 9/317/80 82/318/80 73/319/80 64/320/80
o retrovisor_esquerdo
v -0.53125 0.953125 -0.40625
v -0.53125 0.953125 -0.46875
v -0.53125 0.859375 -0.40625
v -0.71875 0.953125 -0.4375
v -0.71875 0.859375 -0.4375
v -0.6875 0.953125 -0.375
v -0.6875 0.859375 -0.375
v -0.71875 0.90625 -0.4375
v -0.6875 0.90625 -0.375
v -0.53125 0.90625 -0.40625
v -0.53125 0.859375 -0.46875
v -0.53125 0.90625 -0.46875
v -0.5 0.859375 -0.46875
v -0.5 0.90625 -0.40625
v -0.5 0.90625 -0.46875
v -0.5 0.859375 -0.40625
vt 0.1436494921875 0.99609375
vt 0.153608515625 0.99609375
vt 0.154374609375 0.999616953125
vt 0.142500390625 1
vt 0.2509765625 0.82421875
vt 0.2509765625 0.828125
vt 0.2412109375 0.830078125
vt 0.2392578125 0.826171875
vt 0.2500966796875 0.767578125
vt 0.2500966796875 0.7705078125
vt 0.2401376953125 0.7705078125
vt 0.2401376953125 0.767578125
vt 0.073323046875 0.755859375
vt 0.073323046875 0.7587890625
vt 0.061442578125 0.7587890625
vt 0.061442578125 0.755859375
vt 0.0824921875 0.775390625
vt 0.0824921875 0.7783203125
vt 0.078125 0.7783203125
vt 0.078125 0.775390625
vt 0.061442578125 0.76171875
vt 0.061442578125 0.7587890625
vt 0.073323046875 0.7587890625
vt 0.073323046875 0.76171875
vt 0.078125 0.78125
vt 0.078125 0.7783203125
vt 0.0824921875 0.7783203125
vt 0.0824921875 0.78125
vt 0.2401376953125 0.7734375
vt 0.2401376953125 0.7705078125
vt 0.2500966796875 0.7705078125
vt 0.2500966796875 0.7734375
vt 0.1875 0.7578125
vt 0.1875 0.75390625
vt 0.19140625 0.75390625
vt 0.19140625 0.7578125
vt 0.19921875 0.75390625
vt 0.19921875 0.7578125
vt 0.1953125 0.7578125
vt 0.1953125 0.75390625
vt 0.059489453125 0.7587890625
vt 0.059489453125 0.755859375
vt 0.061442578125 0.755859375
vt 0.061442578125 0.7587890625
vt 0.20703125 0.75390625
vt 0.20703125 0.7578125
vt 0.203125 0.7578125
vt 0.203125 0.75390625
vt 0.2520498046875 0.767578125
vt 0.2520498046875 0.7705078125
vt 0.2500966796875 0.7705078125
vt 0.2500966796875 0.767578125
vt 0.2529296875 0.82421875
vt 0.2529296875 0.828125
vt 0.2509765625 0.828125
vt 0.2509765625 0.82421875
vn 0 1 0
vn 0 -1 0
vn 0.19611613513818407 0 0.9805806756909203
vn -0.1643989873053573 0 -0.9863939238321437
vn -0.8944271909999161 0 0.44721359549995804
vn -0.1643989873053573 0 -0.9863939238321437
vn -0.8944271909999161 0 0.44721359549995804
vn 0.19611613513818407 0 0.9805806756909203
vn 1 0 0
vn 1 0 0
vn 0 0 -1
vn 0 1 0
vn 0 0 1
vn 0 -1 0
usemtl m_65f34272-5550-0049-aad6-1257b0503e42
f 88/321/81 83/322/81 84/323/81 86/324/81
f 93/325/82 85/326/82 89/327/82 87/328/82
f 85/329/83 92/330/83 91/331/83 89/332/83
f 87/333/84 90/334/84 94/335/84 93/336/84
f 89/337/85 91/338/85 90/339/85 87/340/85
f 84/341/86 94/342/86 90/343/86 86/344/86
f 86/345/87 90/346/87 91/347/87 88/348/87
f 88/349/88 91/350/88 92/351/88 83/352/88
f 83/353/89 92/354/89 94/355/89 84/356/89
f 95/357/90 97/358/90 96/359/90 98/360/90
f 97/361/91 95/362/91 93/363/91 94/364/91
f 96/365/92 97/366/92 94/367/92 92/368/92
f 98/369/93 96/370/93 92/371/93 85/372/93
f 95/373/94 98/374/94 85/375/94 93/376/94
o retrovisor_direito
v 0.53125 0.953125 -0.40625
v 0.53125 0.953125 -0.46875
v 0.53125 0.859375 -0.40625
v 0.71875 0.953125 -0.4375
v 0.71875 0.859375 -0.4375
v 0.6875 0.953125 -0.375
v 0.6875 0.859375 -0.375
v 0.71875 0.90625 -0.4375
v 0.6875 0.90625 -0.375
v 0.53125 0.90625 -0.40625
v 0.53125 0.859375 -0.46875
v 0.53125 0.90625 -0.46875
v 0.5 0.859375 -0.46875
v 0.5 0.90625 -0.40625
v 0.5 0.90625 -0.46875
v 0.5 0.859375 -0.40625
vt 0.115004921875 0.7578125
vt 0.11117453125 0.75704640625
vt 0.11117453125 0.7470873828125
vt 0.11538796875 0.74593828125
vt 0.2236328125 0.759765625
vt 0.2138671875 0.7578125
vt 0.2138671875 0.75390625
vt 0.2255859375 0.755859375
vt 0.2442373046875 0.7587890625
vt 0.2342783203125 0.7587890625
vt 0.2342783203125 0.755859375
vt 0.2442373046875 0.755859375
vt 0.251057421875 0.9072265625
vt 0.239176953125 0.9072265625
vt 0.239176953125 0.904296875
vt 0.251057421875 0.904296875
vt 0.12890625 0.7548828125
vt 0.1245390625 0.7548828125
vt 0.1245390625 0.751953125
vt 0.12890625 0.751953125
vt 0.239176953125 0.9072265625
vt 0.251057421875 0.9072265625
vt 0.251057421875 0.91015625
vt 0.239176953125 0.91015625
vt 0.1245390625 0.7548828125
vt 0.12890625 0.7548828125
vt 0.12890625 0.7578125
vt 0.1245390625 0.7578125
vt 0.2342783203125 0.7587890625
vt 0.2442373046875 0.7587890625
vt 0.2442373046875 0.76171875
vt 0.2342783203125 0.76171875
vt 0.2421875 0.79296875
vt 0.24609375 0.79296875
vt 0.24609375 0.796875
vt 0.2421875 0.796875
vt 0.24609375 0.7890625
vt 0.2421875 0.7890625
vt 0.2421875 0.78515625
vt 0.24609375 0.78515625
vt 0.251057421875 0.904296875
vt 0.253010546875 0.904296875
vt 0.253010546875 0.9072265625
vt 0.251057421875 0.9072265625
vt 0.24609375 0.78125
vt 0.2421875 0.78125
vt 0.2421875 0.77734375
vt 0.24609375 0.77734375
vt 0.2342783203125 0.7587890625
vt 0.2323251953125 0.7587890625
vt 0.2323251953125 0.755859375
vt 0.2342783203125 0.755859375
vt 0.2138671875 0.7578125
vt 0.2119140625 0.7578125
vt 0.2119140625 0.75390625
vt 0.2138671875 0.75390625
vn 0 1 0
vn 0 -1 0
vn -0.19611613513818407 0 0.9805806756909203
vn 0.1643989873053573 0 -0.9863939238321437
vn 0.8944271909999161 0 0.44721359549995804
vn 0.1643989873053573 0 -0.9863939238321437
vn 0.8944271909999161 0 0.44721359549995804
vn -0.19611613513818407 0 0.9805806756909203
vn -1 0 0
vn -1 0 0
vn 0 0 -1
vn 0 1 0
vn 0 0 1
vn 0 -1 0
usemtl m_65f34272-5550-0049-aad6-1257b0503e42
f 100/377/95 99/378/95 104/379/95 102/380/95
f 105/381/96 101/382/96 109/383/96 103/384/96
f 107/385/97 108/386/97 101/387/97 105/388/97
f 110/389/98 106/390/98 103/391/98 109/392/98
f 106/393/99 107/394/99 105/395/99 103/396/99
f 106/397/100 110/398/100 100/399/100 102/400/100
f 107/401/101 106/402/101 102/403/101 104/404/101
f 108/405/102 107/406/102 104/407/102 99/408/102
f 110/409/103 108/410/103 99/411/103 100/412/103
f 112/413/104 113/414/104 111/415/104 114/416/104
f 109/417/105 111/418/105 113/419/105 110/420/105
f 110/421/106 113/422/106 112/423/106 108/424/106
f 108/425/107 112/426/107 114/427/107 101/428/107
f 101/429/108 114/430/108 111/431/108 109/432/108
o cylinder
v -0.375 0.453125 -0.625
v -0.375 0.537261875 -0.421875
v -0.625 0.537261875 -0.421875
v -0.375 0.65625 -0.540863125
v -0.625 0.65625 -0.540863125
v -0.375 0.65625 -0.709136875
v -0.625 0.65625 -0.709136875
v -0.375 0.537261875 -0.828125
v -0.625 0.537261875 -0.828125
v -0.375 0.368988125 -0.828125
v -0.625 0.368988125 -0.828125
v -0.375 0.25 -0.709136875
v -0.625 0.25 -0.709136875
v -0.375 0.25 -0.540863125
v -0.625 0.25 -0.540863125
v -0.375 0.368988125 -0.421875
v -0.625 0.368988125 -0.421875
v -0.625 0.508234375 -0.758046875
v -0.625 0.398015625 -0.758046875
v -0.625 0.320078125 -0.680109375
v -0.625 0.320078125 -0.569890625
v -0.625 0.398015625 -0.491953125
v -0.625 0.508234375 -0.491953125
v -0.625 0.586171875 -0.569890625
v -0.625 0.586171875 -0.680109375
v -0.578125 0.508234375 -0.758046875
v -0.578125 0.398015625 -0.758046875
v -0.578125 0.453125 -0.625
v -0.578125 0.320078125 -0.680109375
v -0.578125 0.320078125 -0.569890625
v -0.578125 0.398015625 -0.491953125
v -0.578125 0.508234375 -0.491953125
v -0.578125 0.586171875 -0.569890625
v -0.578125 0.586171875 -0.680109375
vt 0.029158203125 0.8046875
vt 0.0234375 0.798966796875
vt 0.033203125 0.794921875
vt 0.23046875 0.8828125
vt 0.23046875 0.890625
vt 0.21484375 0.890625
vt 0.21484375 0.8828125
vt 0.033740234375 0.77467109375
vt 0.029993359375 0.77841796875
vt 0.02734375 0.772021484375
vt 0.037248046875 0.8046875
vt 0.029158203125 0.8046875
vt 0.033203125 0.794921875
vt 0.078125 0.97265625
vt 0.0703125 0.97265625
vt 0.0703125 0.95703125
vt 0.078125 0.95703125
vt 0.029993359375 0.77841796875
vt 0.024694140625 0.77841796875
vt 0.02734375 0.772021484375
vt 0.04296875 0.798966796875
vt 0.037248046875 0.8046875
vt 0.033203125 0.794921875
vt 0.16796875 0.96875
vt 0.16796875 0.9609375
vt 0.18359375 0.9609375
vt 0.18359375 0.96875
vt 0.024694140625 0.77841796875
vt 0.020947265625 0.77467109375
vt 0.02734375 0.772021484375
vt 0.04296875 0.790876953125
vt 0.04296875 0.798966796875
vt 0.033203125 0.794921875
vt 0.14453125 0.84765625
vt 0.14453125 0.83984375
vt 0.16015625 0.83984375
vt 0.16015625 0.84765625
vt 0.020947265625 0.77467109375
vt 0.020947265625 0.769371875
vt 0.02734375 0.772021484375
vt 0.037248046875 0.78515625
vt 0.04296875 0.790876953125
vt 0.033203125 0.794921875
vt 0.20703125 0.84375
vt 0.20703125 0.8359375
vt 0.22265625 0.8359375
vt 0.22265625 0.84375
vt 0.020947265625 0.769371875
vt 0.024694140625 0.765625
vt 0.02734375 0.772021484375
vt 0.029158203125 0.78515625
vt 0.037248046875 0.78515625
vt 0.033203125 0.794921875
vt 0.11328125 0.8359375
vt 0.11328125 0.84375
vt 0.09765625 0.84375
vt 0.09765625 0.8359375
vt 0.024694140625 0.765625
vt 0.029993359375 0.765625
vt 0.02734375 0.772021484375
vt 0.0234375 0.790876953125
vt 0.029158203125 0.78515625
vt 0.033203125 0.794921875
vt 0.2109375 0.8828125
vt 0.2109375 0.890625
vt 0.1953125 0.890625
vt 0.1953125 0.8828125
vt 0.029993359375 0.765625
vt 0.033740234375 0.769371875
vt 0.02734375 0.772021484375
vt 0.0234375 0.798966796875
vt 0.0234375 0.790876953125
vt 0.033203125 0.794921875
vt 0.09375 0.8359375
vt 0.09375 0.84375
vt 0.078125 0.84375
vt 0.078125 0.8359375
vt 0.033740234375 0.769371875
vt 0.033740234375 0.77467109375
vt 0.02734375 0.772021484375
vt 0.179150390625 0.803991015625
vt 0.179150390625 0.809290234375
vt 0.17578125 0.810685546875
vt 0.17578125 0.802595703125
vt 0.182897265625 0.800244140625
vt 0.179150390625 0.803991015625
vt 0.17578125 0.802595703125
vt 0.181501953125 0.796875
vt 0.188196484375 0.800244140625
vt 0.182897265625 0.800244140625
vt 0.181501953125 0.796875
vt 0.189591796875 0.796875
vt 0.191943359375 0.803991015625
vt 0.188196484375 0.800244140625
vt 0.189591796875 0.796875
vt 0.1953125 0.802595703125
vt 0.191943359375 0.809290234375
vt 0.191943359375 0.803991015625
vt 0.1953125 0.802595703125
vt 0.1953125 0.810685546875
vt 0.188196484375 0.813037109375
vt 0.191943359375 0.809290234375
vt 0.1953125 0.810685546875
vt 0.189591796875 0.81640625
vt 0.182897265625 0.813037109375
vt 0.188196484375 0.813037109375
vt 0.189591796875 0.81640625
vt 0.181501953125 0.81640625
vt 0.179150390625 0.809290234375
vt 0.182897265625 0.813037109375
vt 0.181501953125 0.81640625
vt 0.17578125 0.810685546875
vt 0.07421875 0.94921875
vt 0.07421875 0.953125
vt 0.0703125 0.953125
vt 0.0703125 0.94921875
vt 0.109375 0.85546875
vt 0.109375 0.859375
vt 0.10546875 0.859375
vt 0.10546875 0.85546875
vt 0.078125 0.88671875
vt 0.078125 0.8828125
vt 0.08203125 0.8828125
vt 0.08203125 0.88671875
vt 0.10546875 0.8671875
vt 0.10546875 0.86328125
vt 0.109375 0.86328125
vt 0.109375 0.8671875
vt 0.0703125 0.88671875
vt 0.0703125 0.8828125
vt 0.07421875 0.8828125
vt 0.07421875 0.88671875
vt 0.125 0.953125
vt 0.125 0.94921875
vt 0.12890625 0.94921875
vt 0.12890625 0.953125
vt 0.078125 0.94921875
vt 0.08203125 0.94921875
vt 0.08203125 0.953125
vt 0.078125 0.953125
vt 0.13671875 0.94921875
vt 0.13671875 0.953125
vt 0.1328125 0.953125
vt 0.1328125 0.94921875
vn 1 0 0
vn 0 0.7071067811865476 0.7071067811865476
vn -1 0 0
vn 1 0 0
vn 0 1 0
vn -1 0 0
vn 1 0 0
vn 0 0.7071067811865476 -0.7071067811865476
vn -1 0 0
vn 1 0 0
vn 0 0 -1
vn -1 0 0
vn 1 0 0
vn 0 -0.7071067811865476 -0.7071067811865476
vn -1 0 0
vn 1 0 0
vn 0 -1 0
vn -1 0 0
vn 1 0 0
vn 0 -0.7071067811865476 0.7071067811865476
vn -1 0 0
vn 1 0 0
vn 0 0 1
vn -1 0 0
vn -1 0 0
vn -1 0 0
vn -1 0 0
vn -1 0 0
vn -1 0 0
vn -1 0 0
vn -1 0 0
vn -1 0 0
vn 0 0 1
vn 0 0.7071067811865476 0.7071067811865476
vn 0 1 0
vn 0 0.7071067811865476 -0.7071067811865476
vn 0 0 -1
vn 0 -0.7071067811865476 -0.7071067811865476
vn 0 -1 0
vn 0 -0.7071067811865476 0.7071067811865476
usemtl m_65f34272-5550-0049-aad6-1257b0503e42
f 118/433/109 116/434/109 115/435/109
f 116/436/110 118/437/110 119/438/110 117/439/110
f 146/440/111 147/441/111 142/442/111
f 120/443/112 118/444/112 115/445/112
f 118/446/113 120/447/113 121/448/113 119/449/113
f 147/450/114 148/451/114 142/452/114
f 122/453/115 120/454/115 115/455/115
f 120/456/116 122/457/116 123/458/116 121/459/116
f 148/460/117 140/461/117 142/462/117
f 124/463/118 122/464/118 115/465/118
f 122/466/119 124/467/119 125/468/119 123/469/119
f 140/470/120 141/471/120 142/472/120
f 126/473/121 124/474/121 115/475/121
f 124/476/122 126/477/122 127/478/122 125/479/122
f 141/480/123 143/481/123 142/482/123
f 128/483/124 126/484/124 115/485/124
f 126/486/125 128/487/125 129/488/125 127/489/125
f 143/490/126 144/491/126 142/492/126
f 130/493/127 128/494/127 115/495/127
f 128/496/128 130/497/128 131/498/128 129/499/128
f 144/500/129 145/501/129 142/502/129
f 116/503/130 130/504/130 115/505/130
f 130/506/131 116/507/131 117/508/131 131/509/131
f 145/510/132 146/511/132 142/512/132
f 133/513/133 132/514/133 123/515/133 125/516/133
f 134/517/134 133/518/134 125/519/134 127/520/134
f 135/521/135 134/522/135 127/523/135 129/524/135
f 136/525/136 135/526/136 129/527/136 131/528/136
f 137/529/137 136/530/137 131/531/137 117/532/137
f 138/533/138 137/534/138 117/535/138 119/536/138
f 139/537/139 138/538/139 119/539/139 121/540/139
f 132/541/140 139/542/140 121/543/140 123/544/140
f 141/545/141 140/546/141 132/547/141 133/548/141
f 143/549/142 141/550/142 133/551/142 134/552/142
f 144/553/143 143/554/143 134/555/143 135/556/143
f 145/557/144 144/558/144 135/559/144 136/560/144
f 146/561/145 145/562/145 136/563/145 137/564/145
f 147/565/146 146/566/146 137/567/146 138/568/146
f 148/569/147 147/570/147 138/571/147 139/572/147
f 140/573/148 148/574/148 139/575/148 132/576/148
o cylinder
v 0.375 0.453125 -0.625
v 0.375 0.537261875 -0.421875
v 0.625 0.537261875 -0.421875
v 0.375 0.65625 -0.540863125
v 0.625 0.65625 -0.540863125
v 0.375 0.65625 -0.709136875
v 0.625 0.65625 -0.709136875
v 0.375 0.537261875 -0.828125
v 0.625 0.537261875 -0.828125
v 0.375 0.368988125 -0.828125
v 0.625 0.368988125 -0.828125
v 0.375 0.25 -0.709136875
v 0.625 0.25 -0.709136875
v 0.375 0.25 -0.540863125
v 0.625 0.25 -0.540863125
v 0.375 0.368988125 -0.421875
v 0.625 0.368988125 -0.421875
v 0.625 0.508234375 -0.758046875
v 0.625 0.398015625 -0.758046875
v 0.625 0.320078125 -0.680109375
v 0.625 0.320078125 -0.569890625
v 0.625 0.398015625 -0.491953125
v 0.625 0.508234375 -0.491953125
v 0.625 0.586171875 -0.569890625
v 0.625 0.586171875 -0.680109375
v 0.578125 0.508234375 -0.758046875
v 0.578125 0.398015625 -0.758046875
v 0.578125 0.453125 -0.625
v 0.578125 0.320078125 -0.680109375
v 0.578125 0.320078125 -0.569890625
v 0.578125 0.398015625 -0.491953125
v 0.578125 0.508234375 -0.491953125
v 0.578125 0.586171875 -0.569890625
v 0.578125 0.586171875 -0.680109375
vt 0.06640625 0.798966796875
vt 0.060685546875 0.8046875
vt 0.056640625 0.794921875
vt 0.24609375 0.93359375
vt 0.23046875 0.93359375
vt 0.23046875 0.92578125
vt 0.24609375 0.92578125
vt 0.044225390625 0.77841796875
vt 0.040478515625 0.77467109375
vt 0.046875 0.772021484375
vt 0.060685546875 0.8046875
vt 0.052595703125 0.8046875
vt 0.056640625 0.794921875
vt 0.22265625 0.77734375
vt 0.23828125 0.77734375
vt 0.23828125 0.78515625
vt 0.22265625 0.78515625
vt 0.049524609375 0.77841796875
vt 0.044225390625 0.77841796875
vt 0.046875 0.772021484375
vt 0.052595703125 0.8046875
vt 0.046875 0.798966796875
vt 0.056640625 0.794921875
vt 0.2265625 0.8125
vt 0.2421875 0.8125
vt 0.2421875 0.8203125
vt 0.2265625 0.8203125
vt 0.053271484375 0.77467109375
vt 0.049524609375 0.77841796875
vt 0.046875 0.772021484375
vt 0.046875 0.798966796875
vt 0.046875 0.790876953125
vt 0.056640625 0.794921875
vt 0.21875 0.82421875
vt 0.234375 0.82421875
vt 0.234375 0.83203125
vt 0.21875 0.83203125
vt 0.053271484375 0.769371875
vt 0.053271484375 0.77467109375
vt 0.046875 0.772021484375
vt 0.046875 0.790876953125
vt 0.052595703125 0.78515625
vt 0.056640625 0.794921875
vt 0.21875 0.765625
vt 0.234375 0.765625
vt 0.234375 0.7734375
vt 0.21875 0.7734375
vt 0.049524609375 0.765625
vt 0.053271484375 0.769371875
vt 0.046875 0.772021484375
vt 0.052595703125 0.78515625
vt 0.060685546875 0.78515625
vt 0.056640625 0.794921875
vt 0.078125 0.890625
vt 0.078125 0.90625
vt 0.0703125 0.90625
vt 0.0703125 0.890625
vt 0.044225390625 0.765625
vt 0.049524609375 0.765625
vt 0.046875 0.772021484375
vt 0.060685546875 0.78515625
vt 0.06640625 0.790876953125
vt 0.056640625 0.794921875
vt 0.2421875 0.80859375
vt 0.2265625 0.80859375
vt 0.2265625 0.80078125
vt 0.2421875 0.80078125
vt 0.040478515625 0.769371875
vt 0.044225390625 0.765625
vt 0.046875 0.772021484375
vt 0.06640625 0.790876953125
vt 0.06640625 0.798966796875
vt 0.056640625 0.794921875
vt 0.23828125 0.796875
vt 0.22265625 0.796875
vt 0.22265625 0.7890625
vt 0.23828125 0.7890625
vt 0.040478515625 0.77467109375
vt 0.040478515625 0.769371875
vt 0.046875 0.772021484375
vt 0.14453125 0.806779296875
vt 0.141162109375 0.805383984375
vt 0.141162109375 0.800084765625
vt 0.14453125 0.798689453125
vt 0.14453125 0.798689453125
vt 0.141162109375 0.800084765625
vt 0.137415234375 0.796337890625
vt 0.138810546875 0.79296875
vt 0.138810546875 0.79296875
vt 0.137415234375 0.796337890625
vt 0.132116015625 0.796337890625
vt 0.130720703125 0.79296875
vt 0.130720703125 0.79296875
vt 0.132116015625 0.796337890625
vt 0.128369140625 0.800084765625
vt 0.125 0.798689453125
vt 0.125 0.798689453125
vt 0.128369140625 0.800084765625
vt 0.128369140625 0.805383984375
vt 0.125 0.806779296875
vt 0.125 0.806779296875
vt 0.128369140625 0.805383984375
vt 0.132116015625 0.809130859375
vt 0.130720703125 0.8125
vt 0.130720703125 0.8125
vt 0.132116015625 0.809130859375
vt 0.137415234375 0.809130859375
vt 0.138810546875 0.8125
vt 0.138810546875 0.8125
vt 0.137415234375 0.809130859375
vt 0.141162109375 0.805383984375
vt 0.14453125 0.806779296875
vt 0.14453125 0.87890625
vt 0.140625 0.87890625
vt 0.140625 0.875
vt 0.14453125 0.875
vt 0.19140625 0.9140625
vt 0.1875 0.9140625
vt 0.1875 0.91015625
vt 0.19140625 0.91015625
vt 0.16015625 1
vt 0.16015625 0.99609375
vt 0.1640625 0.99609375
vt 0.1640625 1
vt 0.1875 0.9609375
vt 0.19140625 0.9609375
vt 0.19140625 0.96484375
vt 0.1875 0.96484375
vt 0.0703125 0.83984375
vt 0.07421875 0.83984375
vt 0.07421875 0.84375
vt 0.0703125 0.84375
vt 0.125 0.81640625
vt 0.12890625 0.81640625
vt 0.12890625 0.8203125
vt 0.125 0.8203125
vt 0.10546875 0.8515625
vt 0.10546875 0.84765625
vt 0.109375 0.84765625
vt 0.109375 0.8515625
vt 0.13671875 0.8203125
vt 0.1328125 0.8203125
vt 0.1328125 0.81640625
vt 0.13671875 0.81640625
vn -1 0 0
vn 0 0.7071067811865476 0.7071067811865476
vn 1 0 0
vn -1 0 0
vn 0 1 0
vn 1 0 0
vn -1 0 0
vn 0 0.7071067811865476 -0.7071067811865476
vn 1 0 0
vn -1 0 0
vn 0 0 -1
vn 1 0 0
vn -1 0 0
vn 0 -0.7071067811865476 -0.7071067811865476
vn 1 0 0
vn -1 0 0
vn 0 -1 0
vn 1 0 0
vn -1 0 0
vn 0 -0.7071067811865476 0.7071067811865476
vn 1 0 0
vn -1 0 0
vn 0 0 1
vn 1 0 0
vn 1 0 0
vn 1 0 0
vn 1 0 0
vn 1 0 0
vn 1 0 0
vn 1 0 0
vn 1 0 0
vn 1 0 0
vn 0 0 1
vn 0 0.7071067811865476 0.7071067811865476
vn 0 1 0
vn 0 0.7071067811865476 -0.7071067811865476
vn 0 0 -1
vn 0 -0.7071067811865476 -0.7071067811865476
vn 0 -1 0
vn 0 -0.7071067811865476 0.7071067811865476
usemtl m_65f34272-5550-0049-aad6-1257b0503e42
f 150/577/149 152/578/149 149/579/149
f 153/580/150 152/581/150 150/582/150 151/583/150
f 181/584/151 180/585/151 176/586/151
f 152/587/152 154/588/152 149/589/152
f 155/590/153 154/591/153 152/592/153 153/593/153
f 182/594/154 181/595/154 176/596/154
f 154/597/155 156/598/155 149/599/155
f 157/600/156 156/601/156 154/602/156 155/603/156
f 174/604/157 182/605/157 176/606/157
f 156/607/158 158/608/158 149/609/158
f 159/610/159 158/611/159 156/612/159 157/613/159
f 175/614/160 174/615/160 176/616/160
f 158/617/161 160/618/161 149/619/161
f 161/620/162 160/621/162 158/622/162 159/623/162
f 177/624/163 175/625/163 176/626/163
f 160/627/164 162/628/164 149/629/164
f 163/630/165 162/631/165 160/632/165 161/633/165
f 178/634/166 177/635/166 176/636/166
f 162/637/167 164/638/167 149/639/167
f 165/640/168 164/641/168 162/642/168 163/643/168
f 179/644/169 178/645/169 176/646/169
f 164/647/170 150/648/170 149/649/170
f 151/650/171 150/651/171 164/652/171 165/653/171
f 180/654/172 179/655/172 176/656/172
f 157/657/173 166/658/173 167/659/173 159/660/173
f 159/661/174 167/662/174 168/663/174 161/664/174
f 161/665/175 168/666/175 169/667/175 163/668/175
f 163/669/176 169/670/176 170/671/176 165/672/176
f 165/673/177 170/674/177 171/675/177 151/676/177
f 151/677/178 171/678/178 172/679/178 153/680/178
f 153/681/179 172/682/179 173/683/179 155/684/179
f 155/685/180 173/686/180 166/687/180 157/688/180
f 166/689/181 174/690/181 175/691/181 167/692/181
f 167/693/182 175/694/182 177/695/182 168/696/182
f 168/697/183 177/698/183 178/699/183 169/700/183
f 169/701/184 178/702/184 179/703/184 170/704/184
f 170/705/185 179/706/185 180/707/185 171/708/185
f 171/709/186 180/710/186 181/711/186 172/712/186
f 172/713/187 181/714/187 182/715/187 173/716/187
f 173/717/188 182/718/188 174/719/188 166/720/188
o cylinder
v 0.375 0.453125 0.4375
v 0.375 0.537261875 0.640625
v 0.625 0.537261875 0.640625
v 0.375 0.65625 0.521636875
v 0.625 0.65625 0.521636875
v 0.375 0.65625 0.353363125
v 0.625 0.65625 0.353363125
v 0.375 0.537261875 0.234375
v 0.625 0.537261875 0.234375
v 0.375 0.368988125 0.234375
v 0.625 0.368988125 0.234375
v 0.375 0.25 0.353363125
v 0.625 0.25 0.353363125
v 0.375 0.25 0.521636875
v 0.625 0.25 0.521636875
v 0.375 0.368988125 0.640625
v 0.625 0.368988125 0.640625
v 0.625 0.508234375 0.304453125
v 0.625 0.398015625 0.304453125
v 0.625 0.320078125 0.382390625
v 0.625 0.320078125 0.492609375
v 0.625 0.398015625 0.570546875
v 0.625 0.508234375 0.570546875
v 0.625 0.586171875 0.492609375
v 0.625 0.586171875 0.382390625
v 0.578125 0.508234375 0.304453125
v 0.578125 0.398015625 0.304453125
v 0.578125 0.453125 0.4375
v 0.578125 0.320078125 0.382390625
v 0.578125 0.320078125 0.492609375
v 0.578125 0.398015625 0.570546875
v 0.578125 0.508234375 0.570546875
v 0.578125 0.586171875 0.492609375
v 0.578125 0.586171875 0.382390625
vt 0.06640625 0.798966796875
vt 0.060685546875 0.8046875
vt 0.056640625 0.794921875
vt 0.24609375 0.93359375
vt 0.23046875 0.93359375
vt 0.23046875 0.92578125
vt 0.24609375 0.92578125
vt 0.044225390625 0.77841796875
vt 0.040478515625 0.77467109375
vt 0.046875 0.772021484375
vt 0.060685546875 0.8046875
vt 0.052595703125 0.8046875
vt 0.056640625 0.794921875
vt 0.22265625 0.77734375
vt 0.23828125 0.77734375
vt 0.23828125 0.78515625
vt 0.22265625 0.78515625
vt 0.049524609375 0.77841796875
vt 0.044225390625 0.77841796875
vt 0.046875 0.772021484375
vt 0.052595703125 0.8046875
vt 0.046875 0.798966796875
vt 0.056640625 0.794921875
vt 0.2265625 0.8125
vt 0.2421875 0.8125
vt 0.2421875 0.8203125
vt 0.2265625 0.8203125
vt 0.053271484375 0.77467109375
vt 0.049524609375 0.77841796875
vt 0.046875 0.772021484375
vt 0.046875 0.798966796875
vt 0.046875 0.790876953125
vt 0.056640625 0.794921875
vt 0.21875 0.82421875
vt 0.234375 0.82421875
vt 0.234375 0.83203125
vt 0.21875 0.83203125
vt 0.053271484375 0.769371875
vt 0.053271484375 0.77467109375
vt 0.046875 0.772021484375
vt 0.046875 0.790876953125
vt 0.052595703125 0.78515625
vt 0.056640625 0.794921875
vt 0.21875 0.765625
vt 0.234375 0.765625
vt 0.234375 0.7734375
vt 0.21875 0.7734375
vt 0.049524609375 0.765625
vt 0.053271484375 0.769371875
vt 0.046875 0.772021484375
vt 0.052595703125 0.78515625
vt 0.060685546875 0.78515625
vt 0.056640625 0.794921875
vt 0.078125 0.890625
vt 0.078125 0.90625
vt 0.0703125 0.90625
vt 0.0703125 0.890625
vt 0.044225390625 0.765625
vt 0.049524609375 0.765625
vt 0.046875 0.772021484375
vt 0.060685546875 0.78515625
vt 0.06640625 0.790876953125
vt 0.056640625 0.794921875
vt 0.2421875 0.80859375
vt 0.2265625 0.80859375
vt 0.2265625 0.80078125
vt 0.2421875 0.80078125
vt 0.040478515625 0.769371875
vt 0.044225390625 0.765625
vt 0.046875 0.772021484375
vt 0.06640625 0.790876953125
vt 0.06640625 0.798966796875
vt 0.056640625 0.794921875
vt 0.23828125 0.796875
vt 0.22265625 0.796875
vt 0.22265625 0.7890625
vt 0.23828125 0.7890625
vt 0.040478515625 0.77467109375
vt 0.040478515625 0.769371875
vt 0.046875 0.772021484375
vt 0.14453125 0.806779296875
vt 0.141162109375 0.805383984375
vt 0.141162109375 0.800084765625
vt 0.14453125 0.798689453125
vt 0.14453125 0.798689453125
vt 0.141162109375 0.800084765625
vt 0.137415234375 0.796337890625
vt 0.138810546875 0.79296875
vt 0.138810546875 0.79296875
vt 0.137415234375 0.796337890625
vt 0.132116015625 0.796337890625
vt 0.130720703125 0.79296875
vt 0.130720703125 0.79296875
vt 0.132116015625 0.796337890625
vt 0.128369140625 0.800084765625
vt 0.125 0.798689453125
vt 0.125 0.798689453125
vt 0.128369140625 0.800084765625
vt 0.128369140625 0.805383984375
vt 0.125 0.806779296875
vt 0.125 0.806779296875
vt 0.128369140625 0.805383984375
vt 0.132116015625 0.809130859375
vt 0.130720703125 0.8125
vt 0.130720703125 0.8125
vt 0.132116015625 0.809130859375
vt 0.137415234375 0.809130859375
vt 0.138810546875 0.8125
vt 0.138810546875 0.8125
vt 0.137415234375 0.809130859375
vt 0.141162109375 0.805383984375
vt 0.14453125 0.806779296875
vt 0.14453125 0.87890625
vt 0.140625 0.87890625
vt 0.140625 0.875
vt 0.14453125 0.875
vt 0.19140625 0.9140625
vt 0.1875 0.9140625
vt 0.1875 0.91015625
vt 0.19140625 0.91015625
vt 0.16015625 1
vt 0.16015625 0.99609375
vt 0.1640625 0.99609375
vt 0.1640625 1
vt 0.1875 0.9609375
vt 0.19140625 0.9609375
vt 0.19140625 0.96484375
vt 0.1875 0.96484375
vt 0.0703125 0.83984375
vt 0.07421875 0.83984375
vt 0.07421875 0.84375
vt 0.0703125 0.84375
vt 0.125 0.81640625
vt 0.12890625 0.81640625
vt 0.12890625 0.8203125
vt 0.125 0.8203125
vt 0.10546875 0.8515625
vt 0.10546875 0.84765625
vt 0.109375 0.84765625
vt 0.109375 0.8515625
vt 0.13671875 0.8203125
vt 0.1328125 0.8203125
vt 0.1328125 0.81640625
vt 0.13671875 0.81640625
vn -1 0 0
vn 0 0.7071067811865476 0.7071067811865476
vn 1 0 0
vn -1 0 0
vn 0 1 0
vn 1 0 0
vn -1 0 0
vn 0 0.7071067811865476 -0.7071067811865476
vn 1 0 0
vn -1 0 0
vn 0 0 -1
vn 1 0 0
vn -1 0 0
vn 0 -0.7071067811865476 -0.7071067811865476
vn 1 0 0
vn -1 0 0
vn 0 -1 0
vn 1 0 0
vn -1 0 0
vn 0 -0.7071067811865476 0.7071067811865476
vn 1 0 0
vn -1 0 0
vn 0 0 1
vn 1 0 0
vn 1 0 0
vn 1 0 0
vn 1 0 0
vn 1 0 0
vn 1 0 0
vn 1 0 0
vn 1 0 0
vn 1 0 0
vn 0 0 1
vn 0 0.7071067811865476 0.7071067811865476
vn 0 1 0
vn 0 0.7071067811865476 -0.7071067811865476
vn 0 0 -1
vn 0 -0.7071067811865476 -0.7071067811865476
vn 0 -1 0
vn 0 -0.7071067811865476 0.7071067811865476
usemtl m_65f34272-5550-0049-aad6-1257b0503e42
f 184/721/189 186/722/189 183/723/189
f 187/724/190 186/725/190 184/726/190 185/727/190
f 215/728/191 214/729/191 210/730/191
f 186/731/192 188/732/192 183/733/192
f 189/734/193 188/735/193 186/736/193 187/737/193
f 216/738/194 215/739/194 210/740/194
f 188/741/195 190/742/195 183/743/195
f 191/744/196 190/745/196 188/746/196 189/747/196
f 208/748/197 216/749/197 210/750/197
f 190/751/198 192/752/198 183/753/198
f 193/754/199 192/755/199 190/756/199 191/757/199
f 209/758/200 208/759/200 210/760/200
f 192/761/201 194/762/201 183/763/201
f 195/764/202 194/765/202 192/766/202 193/767/202
f 211/768/203 209/769/203 210/770/203
f 194/771/204 196/772/204 183/773/204
f 197/774/205 196/775/205 194/776/205 195/777/205
f 212/778/206 211/779/206 210/780/206
f 196/781/207 198/782/207 183/783/207
f 199/784/208 198/785/208 196/786/208 197/787/208
f 213/788/209 212/789/209 210/790/209
f 198/791/210 184/792/210 183/793/210
f 185/794/211 184/795/211 198/796/211 199/797/211
f 214/798/212 213/799/212 210/800/212
f 191/801/213 200/802/213 201/803/213 193/804/213
f 193/805/214 201/806/214 202/807/214 195/808/214
f 195/809/215 202/810/215 203/811/215 197/812/215
f 197/813/216 203/814/216 204/815/216 199/816/216
f 199/817/217 204/818/217 205/819/217 185/820/217
f 185/821/218 205/822/218 206/823/218 187/824/218
f 187/825/219 206/826/219 207/827/219 189/828/219
f 189/829/220 207/830/220 200/831/220 191/832/220
f 200/833/221 208/834/221 209/835/221 201/836/221
f 201/837/222 209/838/222 211/839/222 202/840/222
f 202/841/223 211/842/223 212/843/223 203/844/223
f 203/845/224 212/846/224 213/847/224 204/848/224
f 204/849/225 213/850/225 214/851/225 205/852/225
f 205/853/226 214/854/226 215/855/226 206/856/226
f 206/857/227 215/858/227 216/859/227 207/860/227
f 207/861/228 216/862/228 208/863/228 200/864/228
o cylinder
v -0.375 0.453125 0.4375
v -0.375 0.537261875 0.640625
v -0.625 0.537261875 0.640625
v -0.375 0.65625 0.521636875
v -0.625 0.65625 0.521636875
v -0.375 0.65625 0.353363125
v -0.625 0.65625 0.353363125
v -0.375 0.537261875 0.234375
v -0.625 0.537261875 0.234375
v -0.375 0.368988125 0.234375
v -0.625 0.368988125 0.234375
v -0.375 0.25 0.353363125
v -0.625 0.25 0.353363125
v -0.375 0.25 0.521636875
v -0.625 0.25 0.521636875
v -0.375 0.368988125 0.640625
v -0.625 0.368988125 0.640625
v -0.625 0.508234375 0.304453125
v -0.625 0.398015625 0.304453125
v -0.625 0.320078125 0.382390625
v -0.625 0.320078125 0.492609375
v -0.625 0.398015625 0.570546875
v -0.625 0.508234375 0.570546875
v -0.625 0.586171875 0.492609375
v -0.625 0.586171875 0.382390625
v -0.578125 0.508234375 0.304453125
v -0.578125 0.398015625 0.304453125
v -0.578125 0.453125 0.4375
v -0.578125 0.320078125 0.382390625
v -0.578125 0.320078125 0.492609375
v -0.578125 0.398015625 0.570546875
v -0.578125 0.508234375 0.570546875
v -0.578125 0.586171875 0.492609375
v -0.578125 0.586171875 0.382390625
vt 0.029158203125 0.8046875
vt 0.0234375 0.798966796875
vt 0.033203125 0.794921875
vt 0.23046875 0.8828125
vt 0.23046875 0.890625
vt 0.21484375 0.890625
vt 0.21484375 0.8828125
vt 0.033740234375 0.77467109375
vt 0.029993359375 0.77841796875
vt 0.02734375 0.772021484375
vt 0.037248046875 0.8046875
vt 0.029158203125 0.8046875
vt 0.033203125 0.794921875
vt 0.078125 0.97265625
vt 0.0703125 0.97265625
vt 0.0703125 0.95703125
vt 0.078125 0.95703125
vt 0.029993359375 0.77841796875
vt 0.024694140625 0.77841796875
vt 0.02734375 0.772021484375
vt 0.04296875 0.798966796875
vt 0.037248046875 0.8046875
vt 0.033203125 0.794921875
vt 0.16796875 0.96875
vt 0.16796875 0.9609375
vt 0.18359375 0.9609375
vt 0.18359375 0.96875
vt 0.024694140625 0.77841796875
vt 0.020947265625 0.77467109375
vt 0.02734375 0.772021484375
vt 0.04296875 0.790876953125
vt 0.04296875 0.798966796875
vt 0.033203125 0.794921875
vt 0.14453125 0.84765625
vt 0.14453125 0.83984375
vt 0.16015625 0.83984375
vt 0.16015625 0.84765625
vt 0.020947265625 0.77467109375
vt 0.020947265625 0.769371875
vt 0.02734375 0.772021484375
vt 0.037248046875 0.78515625
vt 0.04296875 0.790876953125
vt 0.033203125 0.794921875
vt 0.20703125 0.84375
vt 0.20703125 0.8359375
vt 0.22265625 0.8359375
vt 0.22265625 0.84375
vt 0.020947265625 0.769371875
vt 0.024694140625 0.765625
vt 0.02734375 0.772021484375
vt 0.029158203125 0.78515625
vt 0.037248046875 0.78515625
vt 0.033203125 0.794921875
vt 0.11328125 0.8359375
vt 0.11328125 0.84375
vt 0.09765625 0.84375
vt 0.09765625 0.8359375
vt 0.024694140625 0.765625
vt 0.029993359375 0.765625
vt 0.02734375 0.772021484375
vt 0.0234375 0.790876953125
vt 0.029158203125 0.78515625
vt 0.033203125 0.794921875
vt 0.2109375 0.8828125
vt 0.2109375 0.890625
vt 0.1953125 0.890625
vt 0.1953125 0.8828125
vt 0.029993359375 0.765625
vt 0.033740234375 0.769371875
vt 0.02734375 0.772021484375
vt 0.0234375 0.798966796875
vt 0.0234375 0.790876953125
vt 0.033203125 0.794921875
vt 0.09375 0.8359375
vt 0.09375 0.84375
vt 0.078125 0.84375
vt 0.078125 0.8359375
vt 0.033740234375 0.769371875
vt 0.033740234375 0.77467109375
vt 0.02734375 0.772021484375
vt 0.179150390625 0.803991015625
vt 0.179150390625 0.809290234375
vt 0.17578125 0.810685546875
vt 0.17578125 0.802595703125
vt 0.182897265625 0.800244140625
vt 0.179150390625 0.803991015625
vt 0.17578125 0.802595703125
vt 0.181501953125 0.796875
vt 0.188196484375 0.800244140625
vt 0.182897265625 0.800244140625
vt 0.181501953125 0.796875
vt 0.189591796875 0.796875
vt 0.191943359375 0.803991015625
vt 0.188196484375 0.800244140625
vt 0.189591796875 0.796875
vt 0.1953125 0.802595703125
vt 0.191943359375 0.809290234375
vt 0.191943359375 0.803991015625
vt 0.1953125 0.802595703125
vt 0.1953125 0.810685546875
vt 0.188196484375 0.813037109375
vt 0.191943359375 0.809290234375
vt 0.1953125 0.810685546875
vt 0.189591796875 0.81640625
vt 0.182897265625 0.813037109375
vt 0.188196484375 0.813037109375
vt 0.189591796875 0.81640625
vt 0.181501953125 0.81640625
vt 0.179150390625 0.809290234375
vt 0.182897265625 0.813037109375
vt 0.181501953125 0.81640625
vt 0.17578125 0.810685546875
vt 0.07421875 0.94921875
vt 0.07421875 0.953125
vt 0.0703125 0.953125
vt 0.0703125 0.94921875
vt 0.109375 0.85546875
vt 0.109375 0.859375
vt 0.10546875 0.859375
vt 0.10546875 0.85546875
vt 0.078125 0.88671875
vt 0.078125 0.8828125
vt 0.08203125 0.8828125
vt 0.08203125 0.88671875
vt 0.10546875 0.8671875
vt 0.10546875 0.86328125
vt 0.109375 0.86328125
vt 0.109375 0.8671875
vt 0.0703125 0.88671875
vt 0.0703125 0.8828125
vt 0.07421875 0.8828125
vt 0.07421875 0.88671875
vt 0.125 0.953125
vt 0.125 0.94921875
vt 0.12890625 0.94921875
vt 0.12890625 0.953125
vt 0.078125 0.94921875
vt 0.08203125 0.94921875
vt 0.08203125 0.953125
vt 0.078125 0.953125
vt 0.13671875 0.94921875
vt 0.13671875 0.953125
vt 0.1328125 0.953125
vt 0.1328125 0.94921875
vn 1 0 0
vn 0 0.7071067811865476 0.7071067811865476
vn -1 0 0
vn 1 0 0
vn 0 1 0
vn -1 0 0
vn 1 0 0
vn 0 0.7071067811865476 -0.7071067811865476
vn -1 0 0
vn 1 0 0
vn 0 0 -1
vn -1 0 0
vn 1 0 0
vn 0 -0.7071067811865476 -0.7071067811865476
vn -1 0 0
vn 1 0 0
vn 0 -1 0
vn -1 0 0
vn 1 0 0
vn 0 -0.7071067811865476 0.7071067811865476
vn -1 0 0
vn 1 0 0
vn 0 0 1
vn -1 0 0
vn -1 0 0
vn -1 0 0
vn -1 0 0
vn -1 0 0
vn -1 0 0
vn -1 0 0
vn -1 0 0
vn -1 0 0
vn 0 0 1
vn 0 0.7071067811865476 0.7071067811865476
vn 0 1 0
vn 0 0.7071067811865476 -0.7071067811865476
vn 0 0 -1
vn 0 -0.7071067811865476 -0.7071067811865476
vn 0 -1 0
vn 0 -0.7071067811865476 0.7071067811865476
usemtl m_65f34272-5550-0049-aad6-1257b0503e42
f 220/865/229 218/866/229 217/867/229
f 218/868/230 220/869/230 221/870/230 219/871/230
f 248/872/231 249/873/231 244/874/231
f 222/875/232 220/876/232 217/877/232
f 220/878/233 222/879/233 223/880/233 221/881/233
f 249/882/234 250/883/234 244/884/234
f 224/885/235 222/886/235 217/887/235
f 222/888/236 224/889/236 225/890/236 223/891/236
f 250/892/237 242/893/237 244/894/237
f 226/895/238 224/896/238 217/897/238
f 224/898/239 226/899/239 227/900/239 225/901/239
f 242/902/240 243/903/240 244/904/240
f 228/905/241 226/906/241 217/907/241
f 226/908/242 228/909/242 229/910/242 227/911/242
f 243/912/243 245/913/243 244/914/243
f 230/915/244 228/916/244 217/917/244
f 228/918/245 230/919/245 231/920/245 229/921/245
f 245/922/246 246/923/246 244/924/246
f 232/925/247 230/926/247 217/927/247
f 230/928/248 232/929/248 233/930/248 231/931/248
f 246/932/249 247/933/249 244/934/249
f 218/935/250 232/936/250 217/937/250
f 232/938/251 218/939/251 219/940/251 233/941/251
f 247/942/252 248/943/252 244/944/252
f 235/945/253 234/946/253 225/947/253 227/948/253
f 236/949/254 235/950/254 227/951/254 229/952/254
f 237/953/255 236/954/255 229/955/255 231/956/255
f 238/957/256 237/958/256 231/959/256 233/960/256
f 239/961/257 238/962/257 233/963/257 219/964/257
f 240/965/258 239/966/258 219/967/258 221/968/258
f 241/969/259 240/970/259 221/971/259 223/972/259
f 234/973/260 241/974/260 223/975/260 225/976/260
f 243/977/261 242/978/261 234/979/261 235/980/261
f 245/981/262 243/982/262 235/983/262 236/984/262
f 246/985/263 245/986/263 236/987/263 237/988/263
f 247/989/264 246/990/264 237/991/264 238/992/264
f 248/993/265 247/994/265 238/995/265 239/996/265
f 249/997/266 248/998/266 239/999/266 240/1000/266
f 250/1001/267 249/1002/267 240/1003/267 241/1004/267
f 242/1005/268 250/1006/268 241/1007/268 234/1008/268